<svg xmlns="http://www.w3.org/2000/svg" viewBox="0 0 64 64" role="img" aria-labelledby="title">
  <title id="title">Royal Blue Apartment favicon</title>
  <rect width="64" height="64" rx="16" fill="#1d4ed8" />
  <path
    fill="#ffffff"
    d="M18 16h14.4c8.104 0 13.1 4.069 13.1 10.667 0 4.506-2.224 7.567-6.252 8.865 4.868 1.169 7.752 4.824 7.752 10.106C47 53.024 41.453 58 31.875 58H18Zm8.019 16.194h5.451c3.927 0 5.96-1.583 5.96-4.665 0-3.04-2.033-4.623-5.96-4.623h-5.451Zm0 18.217h6.798c4.377 0 6.698-1.733 6.698-5.13 0-3.378-2.321-5.09-6.698-5.09h-6.798Z"
  />
</svg>
